<svg width="1452" height="565" viewBox="0 0 1452 565" fill="none" xmlns="http://www.w3.org/2000/svg">
<path d="M173.243 400.377V326.469L342.48 84.395H444.773V321.114H488.689V400.377H444.773V470H353.192V400.377H173.243ZM359.618 185.081L269.644 321.114H359.618V185.081ZM533.546 269.164C533.546 207.753 545.329 159.374 568.894 124.027C592.815 88.6795 631.197 71.0059 684.039 71.0059C736.882 71.0059 775.085 88.6795 798.65 124.027C822.572 159.374 834.533 207.753 834.533 269.164C834.533 331.289 822.572 380.025 798.65 415.373C775.085 450.72 736.882 468.393 684.039 468.393C631.197 468.393 592.815 450.72 568.894 415.373C545.329 380.025 533.546 331.289 533.546 269.164ZM744.558 269.164C744.558 233.103 740.631 205.432 732.776 186.152C724.921 166.515 708.675 156.696 684.039 156.696C659.404 156.696 643.158 166.515 635.303 186.152C627.448 205.432 623.521 233.103 623.521 269.164C623.521 293.443 624.949 313.616 627.805 329.683C630.662 345.392 636.374 358.246 644.943 368.243C653.869 377.883 666.901 382.703 684.039 382.703C701.177 382.703 714.031 377.883 722.6 368.243C731.526 358.246 737.417 345.392 740.274 329.683C743.13 313.616 744.558 293.443 744.558 269.164ZM885.06 400.377V326.469L1054.3 84.395H1156.59V321.114H1200.51V400.377H1156.59V470H1065.01V400.377H885.06ZM1071.44 185.081L981.461 321.114H1071.44V185.081Z" fill="#7675FD"/>
<path d="M1245.99 397.351C1246.93 397.351 1247.88 396.988 1248.53 396.262C1249.98 394.811 1249.98 392.561 1248.53 391.11L1212.24 354.823C1210.79 353.371 1208.54 353.371 1207.09 354.823C1205.64 356.274 1205.64 358.524 1207.09 359.975L1243.38 396.262C1244.1 396.988 1245.05 397.351 1245.99 397.351Z" fill="#F2726C"/>
<path d="M1245.99 397.352C1248.03 397.352 1249.62 395.755 1249.62 393.723C1249.62 388.135 1254.12 383.635 1259.71 383.635C1265.3 383.635 1269.8 388.135 1269.8 393.723C1269.8 395.755 1271.4 397.352 1273.43 397.352C1275.46 397.352 1277.06 395.755 1277.06 393.723C1277.06 384.144 1269.29 376.378 1259.71 376.378C1250.13 376.378 1242.37 384.144 1242.37 393.723C1242.37 395.755 1243.96 397.352 1245.99 397.352Z" fill="#F2726C"/>
<path d="M1112.02 372.896V535.534C1112.02 542.647 1114.56 549.251 1118.84 554.331C1120.88 556.799 1123.34 558.976 1126.1 560.645C1128.35 562.024 1130.75 563.113 1133.29 563.838C1135.61 564.492 1138 564.927 1140.54 565C1140.83 565 1141.2 565 1141.49 565C1157.67 565 1170.95 551.718 1170.95 535.534V372.896C1170.95 356.639 1157.67 343.43 1141.49 343.43C1133.36 343.43 1126.03 346.769 1120.66 352.067C1115.36 357.437 1112.02 364.767 1112.02 372.896Z" fill="#222433"/>
<g opacity="0.5">
<path opacity="0.5" d="M1118.85 373.983V554.33C1120.88 556.798 1123.35 558.975 1126.11 560.644V373.983H1118.85Z" fill="url(#paint0_linear_8655_276)"/>
</g>
<path opacity="0.5" d="M1133.29 373.984V563.838C1135.61 564.491 1138 564.926 1140.54 564.999V373.984H1133.29Z" fill="url(#paint1_linear_8655_276)"/>
<path d="M1141.48 550.483C1160.57 550.483 1176.03 534.952 1176.03 515.938C1176.03 513.906 1174.43 512.309 1172.4 512.309C1170.37 512.309 1168.77 513.906 1168.77 515.938C1168.77 531.033 1156.51 543.226 1141.48 543.226C1126.39 543.226 1114.2 530.961 1114.2 515.938C1114.2 513.906 1112.6 512.309 1110.57 512.309C1108.54 512.309 1106.94 513.906 1106.94 515.938C1106.94 534.952 1122.47 550.483 1141.48 550.483Z" fill="#32535D"/>
<path d="M1141.48 528.567C1160.57 528.567 1176.03 513.036 1176.03 494.022C1176.03 491.99 1174.43 490.393 1172.4 490.393C1170.37 490.393 1168.77 491.99 1168.77 494.022C1168.77 509.117 1156.51 521.31 1141.48 521.31C1126.39 521.31 1114.2 509.045 1114.2 494.022C1114.2 491.99 1112.6 490.393 1110.57 490.393C1108.54 490.393 1106.94 491.99 1106.94 494.022C1106.94 513.036 1122.47 528.567 1141.48 528.567Z" fill="#32535D"/>
<path d="M1112.02 392.925C1184.16 392.925 1286.56 320.206 1296.94 231.81C1307.76 139.931 1241.79 70.623 1169.21 70.623V203.942C1169.21 232.318 1163.99 260.477 1153.61 286.894L1112.02 392.925Z" fill="#222433"/>
<path d="M1241.2 304.749C1238.52 310.772 1233.95 315.417 1228.43 318.102C1226.76 312.224 1227.05 305.692 1229.74 299.668C1232.42 293.645 1237 289 1242.51 286.315C1244.18 292.193 1243.82 298.652 1241.2 304.749Z" fill="url(#paint2_linear_8655_276)"/>
<path d="M1206.59 304.749C1203.9 310.772 1199.33 315.417 1193.81 318.102C1192.14 312.224 1192.43 305.692 1195.12 299.668C1197.8 293.645 1202.38 289 1207.89 286.315C1209.56 292.193 1209.27 298.652 1206.59 304.749Z" fill="url(#paint3_linear_8655_276)"/>
<path d="M1216.6 326.522C1213.91 332.545 1209.34 337.19 1203.83 339.875C1202.16 333.997 1202.45 327.465 1205.13 321.442C1207.82 315.418 1212.39 310.773 1217.91 308.088C1219.57 313.966 1219.28 320.426 1216.6 326.522Z" fill="url(#paint4_linear_8655_276)"/>
<path d="M1099.03 326.518C1099.03 330.074 1099.1 333.63 1099.39 337.186C1099.9 345.532 1100.99 353.878 1102.66 362.152C1102.95 363.531 1103.24 364.91 1103.53 366.289C1104.11 368.756 1112.24 392.706 1112.02 392.923C1141.27 370.353 1163.62 338.347 1173.85 299.883C1174.43 297.633 1175.01 295.384 1175.52 293.061C1177.7 283.554 1179.15 273.684 1179.8 263.596C1181.55 238.34 1178.42 212.213 1169.21 189.715C1166.96 191.457 1164.71 193.272 1162.46 195.159C1136.19 217.149 1114.41 245.888 1104.91 281.377C1102.73 289.505 1101.13 297.778 1100.19 306.125C1099.39 312.946 1099.03 319.696 1099.03 326.518Z" fill="#25386D"/>
<path d="M1099.03 326.518C1099.03 330.074 1099.1 333.63 1099.39 337.186C1099.9 345.532 1100.99 353.878 1102.66 362.152C1102.95 363.531 1103.24 364.91 1103.53 366.289C1104.11 368.756 1112.24 392.706 1112.02 392.923C1141.27 370.353 1163.62 338.347 1173.85 299.883C1174.43 297.633 1175.01 295.384 1175.52 293.061C1177.7 283.554 1179.15 273.684 1179.8 263.596C1181.55 238.34 1178.42 212.213 1169.21 189.715C1166.96 191.457 1164.71 193.272 1162.46 195.159C1136.19 217.149 1114.41 245.888 1104.91 281.377C1102.73 289.505 1101.13 297.778 1100.19 306.125C1099.39 312.946 1099.03 319.696 1099.03 326.518Z" fill="#222433" fill-opacity="0.3"/>
<path d="M1100.19 306.127C1127.48 283.774 1148.31 252.93 1158.11 216.207C1158.69 213.957 1159.27 211.708 1159.77 209.385C1160.86 204.74 1161.73 199.95 1162.46 195.088C1136.19 217.078 1114.42 245.817 1104.91 281.306C1102.73 289.507 1101.13 297.781 1100.19 306.127Z" fill="url(#paint5_linear_8655_276)"/>
<path d="M1278.73 198.717C1278.73 231.085 1254.2 257.284 1223.93 257.284C1193.67 257.284 1169.14 231.085 1169.14 198.717V81.5095C1230.17 81.5095 1278.73 133.981 1278.73 198.717Z" fill="#F26C74"/>
<path d="M1169.21 81.5095V170.486C1169.21 195.088 1186.12 214.974 1207.02 214.974C1227.92 214.974 1244.83 195.016 1244.83 170.486C1244.83 122.949 1213.48 84.1222 1173.42 81.5821C1171.97 81.5821 1170.59 81.5095 1169.21 81.5095Z" fill="#F8EA8C"/>
<path d="M1192.07 131.731C1181.77 131.731 1173.42 123.38 1173.42 113.079C1173.42 102.778 1181.77 94.4275 1192.07 94.4275C1202.37 94.4275 1210.72 102.778 1210.72 113.079C1210.72 123.38 1202.37 131.731 1192.07 131.731Z" fill="#43A3A8"/>
<path d="M1192.07 122.806C1186.7 122.806 1182.35 118.452 1182.35 113.081C1182.35 107.71 1186.7 103.356 1192.07 103.356C1197.44 103.356 1201.8 107.71 1201.8 113.081C1201.8 118.452 1197.44 122.806 1192.07 122.806Z" fill="url(#paint6_linear_8655_276)"/>
<path d="M1004.98 115.909C1018.69 116.853 1029.58 127.957 1030.23 141.673C1041.41 138.19 1053.24 136.375 1065.5 136.375H1169.21V70.623H1083.21C1072.98 70.623 1063.11 72.2923 1053.97 75.4855C1033.21 82.5978 1015.79 97.1126 1004.98 115.909Z" fill="#F8EA8C"/>
<path d="M1023.63 160.833H1169.21V136.375H1065.58C1053.31 136.375 1041.48 138.19 1030.31 141.673C1030.31 142.109 1030.31 142.544 1030.31 143.052C1030.31 149.801 1027.77 156.115 1023.63 160.833Z" fill="#F26A6C"/>
<path d="M1150.05 70.623H1169.21V136.375H1150.05V70.623Z" fill="url(#paint7_linear_8655_276)"/>
<path d="M1150.05 136.375H1169.21V160.905H1150.05V136.375Z" fill="black"/>
<path d="M993.002 160.833C1004.03 152.415 1016.66 145.811 1030.23 141.601C1029.58 127.812 1018.69 116.781 1004.98 115.837C997.356 129.118 993.002 144.504 993.002 160.833Z" fill="#25316D"/>
<path d="M993.002 160.834H1023.56C1026.6 157.351 1028.78 153.069 1029.72 148.351C1030.09 146.61 1030.23 144.868 1030.23 142.981C1030.23 142.546 1030.23 142.11 1030.23 141.602C1016.66 145.884 1004.11 152.416 993.002 160.834Z" fill="#222433"/>
<path opacity="0.7" d="M1115.43 136.375H1150.05V70.623H1111.3C1113.11 78.1708 1114.78 86.8071 1115.72 96.3869C1117.25 111.773 1116.67 125.344 1115.43 136.375Z" fill="url(#paint8_linear_8655_276)"/>
<mask id="mask0_8655_276" style="mask-type:alpha" maskUnits="userSpaceOnUse" x="1184" y="106" width="13" height="13">
<path d="M1190.84 118.233C1187.51 118.233 1184.81 115.536 1184.81 112.21C1184.81 108.883 1187.51 106.186 1190.84 106.186C1194.17 106.186 1196.86 108.883 1196.86 112.21C1196.86 115.536 1194.17 118.233 1190.84 118.233Z" fill="url(#paint9_linear_8655_276)"/>
</mask>
<g mask="url(#mask0_8655_276)">
<path d="M1190.84 118.231C1187.51 118.231 1184.81 115.534 1184.81 112.207C1184.81 108.881 1187.51 106.184 1190.84 106.184C1194.16 106.184 1196.86 108.881 1196.86 112.207C1196.86 115.534 1194.16 118.231 1190.84 118.231Z" fill="url(#paint10_linear_8655_276)"/>
</g>
<path d="M1193.45 397.352C1194.39 397.352 1195.34 396.989 1195.99 396.263C1197.44 394.812 1197.44 392.562 1195.99 391.11L1171.82 366.943C1170.37 365.492 1168.12 365.492 1166.67 366.943C1165.22 368.395 1165.22 370.644 1166.67 372.096L1190.84 396.263C1191.56 396.989 1192.51 397.352 1193.45 397.352Z" fill="#F2726C"/>
<path d="M1193.45 397.353C1195.48 397.353 1197.08 395.756 1197.08 393.724C1197.08 388.136 1201.58 383.636 1207.17 383.636C1212.75 383.636 1217.25 388.136 1217.25 393.724C1217.25 395.756 1218.85 397.353 1220.88 397.353C1222.91 397.353 1224.51 395.756 1224.51 393.724C1224.51 384.144 1216.75 376.379 1207.17 376.379C1197.59 376.379 1189.82 384.144 1189.82 393.724C1189.82 395.756 1191.42 397.353 1193.45 397.353Z" fill="#F2726C"/>
<path d="M1035.78 401.998H1344.95C1347.92 401.998 1350.39 399.531 1350.39 396.555C1350.39 393.579 1347.92 391.112 1344.95 391.112H1035.78C1032.81 391.112 1030.34 393.579 1030.34 396.555C1030.34 399.531 1032.81 401.998 1035.78 401.998Z" fill="#A86E58"/>
<path d="M1220.81 397.353C1222.84 397.353 1224.44 395.757 1224.44 393.725C1224.44 384.145 1216.67 376.379 1207.09 376.379C1205.06 376.379 1203.46 377.976 1203.46 380.008C1203.46 382.04 1205.06 383.637 1207.09 383.637C1212.68 383.637 1217.18 388.136 1217.18 393.725C1217.18 395.757 1218.85 397.353 1220.81 397.353Z" fill="#F2726C"/>
<path d="M1273.35 397.356C1275.38 397.356 1276.98 395.76 1276.98 393.727C1276.98 384.148 1269.21 376.382 1259.63 376.382C1257.6 376.382 1256.01 377.979 1256.01 380.011C1256.01 382.043 1257.6 383.64 1259.63 383.64C1265.22 383.64 1269.72 388.139 1269.72 393.727C1269.72 395.76 1271.39 397.356 1273.35 397.356Z" fill="#F2726C"/>
<path d="M1258.12 48.5843C1258.12 48.5843 1272.82 42.5906 1277.23 30.276C1281.65 17.9614 1274.12 3.98922 1274.12 3.98922C1274.12 3.98922 1259.42 9.98295 1255 22.2975C1250.58 34.6121 1258.12 48.5843 1258.12 48.5843Z" fill="#F2726C"/>
<path d="M1350.61 229.266C1350.61 229.266 1362.49 241.798 1377.02 241.679C1391.54 241.56 1403.22 228.835 1403.22 228.835C1403.22 228.835 1391.34 216.303 1376.81 216.422C1362.28 216.541 1350.61 229.266 1350.61 229.266Z" fill="#FAA881"/>
<path d="M1309.55 383.779C1309.55 383.779 1325.23 386.255 1336.03 378.051C1346.83 369.847 1348.65 354.069 1348.65 354.069C1348.65 354.069 1332.97 351.592 1322.17 359.796C1311.37 368 1309.55 383.779 1309.55 383.779Z" fill="#7675FD"/>
<path d="M1270.97 406.708C1270.97 406.708 1268.39 417.915 1273.8 425.931C1279.22 433.948 1290.58 435.739 1290.58 435.739C1290.58 435.739 1293.16 424.532 1287.74 416.516C1282.33 408.499 1270.97 406.708 1270.97 406.708Z" fill="#43A3A8"/>
<path d="M1327.34 99.0473C1327.34 99.0473 1365.3 106.809 1395.94 88.8278C1426.59 70.8467 1438.34 33.932 1438.34 33.932C1438.34 33.932 1400.38 26.1703 1369.73 44.1514C1339.09 62.1325 1327.34 99.0473 1327.34 99.0473Z" fill="#7675FD"/>
<path d="M193.326 450.801C193.326 450.801 178.625 456.795 174.207 469.11C169.789 481.424 177.326 495.396 177.326 495.396C177.326 495.396 192.026 489.403 196.444 477.088C200.863 464.773 193.326 450.801 193.326 450.801Z" fill="#FAA881"/>
<path d="M124.098 400.338C124.098 400.338 86.1464 392.577 55.4965 410.558C24.8466 428.539 13.105 465.454 13.105 465.454C13.105 465.454 51.0566 473.215 81.7065 455.234C112.356 437.253 124.098 400.338 124.098 400.338Z" fill="#43A3A8"/>
<defs>
<linearGradient id="paint0_linear_8655_276" x1="1122.46" y1="555.917" x2="1122.46" y2="394.218" gradientUnits="userSpaceOnUse">
<stop stop-color="#24C667"/>
<stop offset="1" stop-color="#244C6B"/>
</linearGradient>
<linearGradient id="paint1_linear_8655_276" x1="1136.91" y1="601.15" x2="1136.91" y2="420.93" gradientUnits="userSpaceOnUse">
<stop stop-color="#24C667"/>
<stop offset="1" stop-color="#244C6B"/>
</linearGradient>
<linearGradient id="paint2_linear_8655_276" x1="1225.71" y1="324.123" x2="1239.01" y2="294.104" gradientUnits="userSpaceOnUse">
<stop offset="0.5313" stop-color="#244C6B"/>
<stop offset="1" stop-color="#24236D"/>
</linearGradient>
<linearGradient id="paint3_linear_8655_276" x1="1191.1" y1="324.123" x2="1204.4" y2="294.104" gradientUnits="userSpaceOnUse">
<stop offset="0.5313" stop-color="#244C6B"/>
<stop offset="1" stop-color="#24236D"/>
</linearGradient>
<linearGradient id="paint4_linear_8655_276" x1="1201.17" y1="345.879" x2="1214.47" y2="315.861" gradientUnits="userSpaceOnUse">
<stop offset="0.5313" stop-color="#244C6B"/>
<stop offset="1" stop-color="#24236D"/>
</linearGradient>
<linearGradient id="paint5_linear_8655_276" x1="1172.17" y1="164.387" x2="1115.57" y2="282.683" gradientUnits="userSpaceOnUse">
<stop stop-color="#7675FD"/>
<stop offset="1" stop-color="#244C6B"/>
</linearGradient>
<linearGradient id="paint6_linear_8655_276" x1="1197.36" y1="120.18" x2="1186.35" y2="105.302" gradientUnits="userSpaceOnUse">
<stop/>
<stop offset="1" stop-color="#24236D"/>
</linearGradient>
<linearGradient id="paint7_linear_8655_276" x1="1159.62" y1="133.424" x2="1159.62" y2="73.9053" gradientUnits="userSpaceOnUse">
<stop stop-color="#24236D"/>
<stop offset="1" stop-color="#244C6B"/>
</linearGradient>
<linearGradient id="paint8_linear_8655_276" x1="1130.64" y1="134.875" x2="1130.64" y2="79.0651" gradientUnits="userSpaceOnUse">
<stop stop-color="#EE2A7B"/>
<stop offset="1" stop-color="#F15665"/>
</linearGradient>
<linearGradient id="paint9_linear_8655_276" x1="1192.61" y1="117.006" x2="1188.98" y2="107.32" gradientUnits="userSpaceOnUse">
<stop offset="0.00386639"/>
<stop offset="0.9994" stop-color="white"/>
</linearGradient>
<linearGradient id="paint10_linear_8655_276" x1="1192.61" y1="117.004" x2="1188.98" y2="107.317" gradientUnits="userSpaceOnUse">
<stop offset="0.00386639"/>
<stop offset="0.9994" stop-color="#C6C6FF"/>
</linearGradient>
</defs>
</svg>
